<?xml version="1.0" encoding="UTF-8"?>
<svg id="Layer_1" data-name="Layer 1" xmlns="http://www.w3.org/2000/svg" viewBox="0 0 1080 1080">
  <defs>
    <style>
      .cls-1 {
        fill: #3c0366;
      }
    </style>
  </defs>
  <path class="cls-1" d="M659.41,539.61v-1.72c58.51-13.76,104.11-55.06,104.11-135.94,0-91.2-67.11-147.99-221.13-147.99h-215.96v593.69h221.12c164.34,0,240.92-67.11,240.92-162.62,0-84.32-57.65-134.22-129.06-145.41ZM420.21,335.69h115.29c48.02,0,81.86,6.42,103.56,20.05,21.06,13.23,30.67,33.27,30.67,60.82,0,6.57-.62,12.88-1.9,18.88-8.89,41.9-49.65,68.89-133.19,68.89h-114.44v-168.64ZM658.19,740.24c-20.44,12.85-50.34,20.47-90.82,22.51-76.54-4.11-132.77-43.5-147.16-128.06v-53.79h123.9c12.76,0,24.65.55,35.71,1.61v49.1h78.37v108.62Z"/>
  <g>
    <path class="cls-1" d="M592.12,472.9c0,8.16-2.07,15.79-5.76,22.44-.26.53-.53,1.05-.69,1.61-.76,2.17-1.68,4.28-2.73,6.28l-2.4,4.05-.03.03v.03c-1.71,2.57-3.69,5-5.86,7.17-.39.43-.69.92-.82,1.48-.2.99-.36,2.07-.43,2.9-.1.89-.13,1.51-.13,1.51l-.79,9.54c-.03.56.07,1.48.2,2.04.23,1.32-.26,2.43-.92,3.29-8.95.89-18.62,1.35-28.99,1.35h-22.18c-.53-.59-.92-1.28-1.15-1.74-.16-.33-.26-.69-.26-1.05v-8.62c0-.95-.03-1.84-.13-2.67-.43-3.82-1.74-5.92-2.3-6.61-.13-.23-.3-.43-.39-.66l-3.59-6.55v-.03c-2.96-3.55-5.36-7.6-7.14-11.94-4.18-6.98-6.55-15.14-6.55-23.85,0-5.63.99-11.02,2.83-16.06,6.55-17.77,23.62-30.47,43.7-30.47,18.66,0,34.78,10.99,42.18,26.88,2.8,5.96,4.34,12.63,4.34,19.64Z"/>
    <path class="cls-1" d="M582.93,503.24c-.73,1.4-1.53,2.75-2.39,4.06l2.39-4.06Z"/>
    <path class="cls-1" d="M520.97,425.53c-2.29,1.19-4.49,2.55-6.57,4.05l-10.59-11c-1.2-1.24-1.49-3.49-.49-4.9.77-1.08,1.93-1.61,3.09-1.61.99,0,1.97.39,2.71,1.15l11.84,12.29Z"/>
    <path class="cls-1" d="M498.21,448.29c-1.16,2.23-2.17,4.55-3.01,6.94l-12.57-4.29c-1.77-.6-2.97-2.37-2.67-4.21s1.96-3.19,3.73-3.19c.4,0,.82.07,1.22.2l13.3,4.54Z"/>
    <path class="cls-1" d="M494.16,487.29l-13.73,2.1c-2.06.32-3.98-1.1-4.3-3.16-.03-.19-.04-.39-.04-.58,0-1.83,1.34-3.44,3.2-3.72l13.37-2.05c.33,2.53.84,5,1.51,7.4Z"/>
    <path class="cls-1" d="M611.52,446.94c0,1.55-.96,3-2.5,3.55l-13.06,4.68c-.84-2.39-1.86-4.71-3.02-6.93l13.54-4.85c1.96-.7,4.12.32,4.82,2.28.15.42.22.85.22,1.27Z"/>
    <path class="cls-1" d="M614.68,486.11c-.24,1.91-1.86,3.31-3.74,3.31-.16,0-.31,0-.47-.03l-13.57-1.69c.69-2.4,1.22-4.88,1.57-7.41l12.93,1.61c2.07.26,3.54,2.14,3.28,4.21Z"/>
    <path class="cls-1" d="M587,415.34c0,.83-.27,1.67-.84,2.37l-9.51,11.78c-2.06-1.47-4.22-2.81-6.48-3.98l10.03-12.44c1.12-1.39,3.06-1.93,4.65-1.14,1.4.69,2.14,2.04,2.14,3.4Z"/>
    <path class="cls-1" d="M549.08,419.64c-1.15-.08-2.32-.11-3.49-.11-1.36,0-2.71.05-4.05.15l-.45-17.36c-.05-2.08,1.59-3.81,3.67-3.87h.1c2.04,0,3.72,1.62,3.77,3.67l.45,17.52Z"/>
  </g>
</svg>